<svg xmlns="http://www.w3.org/2000/svg" xmlns:xlink="http://www.w3.org/1999/xlink" width="960" height="537.62"><rect width="960" height="537.62" rx="5" ry="5" class="a"/><svg y="0%" x="0%"><circle cx="20" cy="20" r="6" fill="#ff5f58"/><circle cx="40" cy="20" r="6" fill="#ffbd2e"/><circle cx="60" cy="20" r="6" fill="#18c132"/></svg><svg height="477.62" viewBox="0 0 92 47.762" width="920" x="15" xmlns="http://www.w3.org/2000/svg" xmlns:xlink="http://www.w3.org/1999/xlink" y="50"><style>@keyframes i{0%{transform:translateX(0)}.1%{transform:translateX(-92px)}22.1%{transform:translateX(-184px)}22.3%{transform:translateX(-276px)}55.3%{transform:translateX(-368px)}55.4%{transform:translateX(-552px)}77.4%{transform:translateX(-644px)}78%{transform:translateX(-828px)}to{transform:translateX(-920px)}}.a{fill:#282d35}.f{fill:#b9c0cb;white-space:pre}</style><g font-family="Monaco,Consolas,Menlo,'Bitstream Vera Sans Mono','Powerline Symbols',monospace" font-size="1.67"><defs><symbol id="1"><text y="1.67" class="f">#</text><text x="2.004" y="1.67" class="f">pg_kafka</text><text x="11.022" y="1.67" class="f">—</text><text x="13.026" y="1.67" class="f">produce</text><text x="21.042" y="1.67" class="f">over</text><text x="26.052" y="1.67" class="f">the</text><text x="30.06" y="1.67" class="f">Kafka</text><text x="36.072" y="1.67" class="f">wire</text><text x="41.082" y="1.67" class="f">protocol,</text><text x="51.102" y="1.67" class="f">read</text><text x="56.112" y="1.67" class="f">it</text><text x="59.118" y="1.67" class="f">back</text><text x="64.128" y="1.67" class="f">as</text><text x="67.134" y="1.67" class="f">SQL</text></symbol><symbol id="2"><text y="1.67" class="f">$</text><text x="2.004" y="1.67" class="f">echo</text><text x="7.014" y="1.67" class="f">&apos;key1:value1&apos;</text><text x="21.042" y="1.67" class="f">|</text><text x="23.046" y="1.67" class="f">kcat</text><text x="28.056" y="1.67" class="f">-P</text><text x="31.062" y="1.67" class="f">-b</text><text x="34.068" y="1.67" class="f">127.0.0.1:9092</text><text x="49.098" y="1.67" class="f">-t</text><text x="52.104" y="1.67" class="f">demo</text><text x="57.114" y="1.67" class="f">-K:</text></symbol><symbol id="3"><text y="1.67" class="f">$</text><text x="2.004" y="1.67" class="f">kcat</text><text x="7.014" y="1.67" class="f">-C</text><text x="10.02" y="1.67" class="f">-b</text><text x="13.026" y="1.67" class="f">127.0.0.1:9092</text><text x="28.056" y="1.67" class="f">-t</text><text x="31.062" y="1.67" class="f">demo</text><text x="36.072" y="1.67" class="f">-o</text><text x="39.078" y="1.67" class="f">beginning</text><text x="49.098" y="1.67" class="f">-c1</text><text x="53.106" y="1.67" class="f">-e</text></symbol><symbol id="4"><text y="1.67" class="f">value1</text></symbol><symbol id="5"><text y="1.67" class="f">$</text><text x="2.004" y="1.67" class="f">psql</text><text x="7.014" y="1.67" class="f">-P</text><text x="10.02" y="1.67" class="f">pager=off</text><text x="20.04" y="1.67" class="f">-f</text><text x="23.046" y="1.67" class="f">/tmp/tmp.ZzMsHAGSdx.sql</text></symbol><symbol id="6"><text x="1.002" y="1.67" class="f">key</text><text x="6.012" y="1.67" class="f">|</text><text x="8.016" y="1.67" class="f">value</text></symbol><symbol id="7"><text y="1.67" class="f">------+--------</text></symbol><symbol id="8"><text x="1.002" y="1.67" class="f">key1</text><text x="6.012" y="1.67" class="f">|</text><text x="8.016" y="1.67" class="f">value1</text></symbol><symbol id="9"><text y="1.67" class="f">(1</text><text x="3.006" y="1.67" class="f">row)</text></symbol><symbol id="a"><path fill="transparent" d="M0 0h92v23H0z"/></symbol><symbol id="b"><path fill="#6f7683" d="M0 0h1.102v2.171H0z"/></symbol></defs><path class="a" d="M0 0h92v47.762H0z"/><g style="animation-duration:7.288567s;animation-iteration-count:infinite;animation-name:i;animation-timing-function:steps(1,end)"><svg width="1012"><svg><use xlink:href="#a"/><use xlink:href="#b" x="-.004"/></svg><svg x="92"><use xlink:href="#a"/><use xlink:href="#b" x="-.004" y="4.317"/><use xlink:href="#1"/></svg><svg x="184"><use xlink:href="#a"/><use xlink:href="#b" x="-.004" y="6.488"/><use xlink:href="#1"/><use xlink:href="#2" y="4.342"/></svg><svg x="276"><use xlink:href="#a"/><use xlink:href="#b" x="-.004" y="8.659"/><use xlink:href="#1"/><use xlink:href="#2" y="4.342"/></svg><svg x="368"><use xlink:href="#a"/><use xlink:href="#b" x="-.004" y="10.83"/><use xlink:href="#1"/><use xlink:href="#2" y="4.342"/><use xlink:href="#3" y="8.684"/></svg><svg x="460"><use xlink:href="#a"/><use xlink:href="#b" x="-.004" y="13.001"/><use xlink:href="#1"/><use xlink:href="#2" y="4.342"/><use xlink:href="#3" y="8.684"/><use xlink:href="#4" y="10.855"/></svg><svg x="552"><use xlink:href="#a"/><use xlink:href="#b" x="-.004" y="15.172"/><use xlink:href="#1"/><use xlink:href="#2" y="4.342"/><use xlink:href="#3" y="8.684"/><use xlink:href="#4" y="10.855"/></svg><svg x="644"><use xlink:href="#a"/><use xlink:href="#b" x="-.004" y="17.343"/><use xlink:href="#1"/><use xlink:href="#2" y="4.342"/><use xlink:href="#3" y="8.684"/><use xlink:href="#4" y="10.855"/><use xlink:href="#5" y="15.197"/></svg><svg x="736"><use xlink:href="#a"/><use xlink:href="#b" x="-.004" y="28.198"/><use xlink:href="#1"/><use xlink:href="#2" y="4.342"/><use xlink:href="#3" y="8.684"/><use xlink:href="#4" y="10.855"/><use xlink:href="#5" y="15.197"/><use xlink:href="#6" y="17.368"/><use xlink:href="#7" y="19.539"/><use xlink:href="#8" y="21.71"/><use xlink:href="#9" y="23.881"/></svg><svg x="828"><use xlink:href="#a"/><use xlink:href="#b" x="-.004" y="30.369"/><use xlink:href="#1"/><use xlink:href="#2" y="4.342"/><use xlink:href="#3" y="8.684"/><use xlink:href="#4" y="10.855"/><use xlink:href="#5" y="15.197"/><use xlink:href="#6" y="17.368"/><use xlink:href="#7" y="19.539"/><use xlink:href="#8" y="21.71"/><use xlink:href="#9" y="23.881"/></svg><svg x="920"><use xlink:href="#a"/><use xlink:href="#b" x="-.004" y="32.54"/><use xlink:href="#1"/><use xlink:href="#2" y="4.342"/><use xlink:href="#3" y="8.684"/><use xlink:href="#4" y="10.855"/><use xlink:href="#5" y="15.197"/><use xlink:href="#6" y="17.368"/><use xlink:href="#7" y="19.539"/><use xlink:href="#8" y="21.71"/><use xlink:href="#9" y="23.881"/><text y="32.064" class="f">#</text><text x="2.004" y="32.064" class="f">the</text><text x="6.012" y="32.064" class="f">broker</text><text x="13.026" y="32.064" class="f">and</text><text x="17.034" y="32.064" class="f">the</text><text x="21.042" y="32.064" class="f">table</text><text x="27.054" y="32.064" class="f">are</text><text x="31.062" y="32.064" class="f">the</text><text x="35.07" y="32.064" class="f">same</text><text x="40.08" y="32.064" class="f">data.</text></svg></svg></g></g></svg></svg>